<svg xmlns="http://www.w3.org/2000/svg" xmlns:xlink="http://www.w3.org/1999/xlink" width="1016" height="423" viewBox="0 0 1016 423"><defs><linearGradient id="a" x1="0.5" y1="-3.883" x2="0.5" y2="5.896" gradientUnits="objectBoundingBox"><stop offset="0" stop-color="#00aeef"/><stop offset="1" stop-color="#000230"/></linearGradient><linearGradient id="b" x1="0.5" y1="-4.996" x2="0.5" y2="4.783" xlink:href="#a"/><linearGradient id="c" x1="0.5" y1="-6.111" x2="0.5" y2="3.668" xlink:href="#a"/><linearGradient id="d" x1="0.5" y1="-7.226" x2="0.5" y2="2.553" xlink:href="#a"/><linearGradient id="e" x1="0.5" y1="-8.339" x2="0.5" y2="1.44" xlink:href="#a"/></defs><g transform="translate(4.5 4.5)"><line y2="18.6" transform="translate(207 14.7)" fill="none" stroke="#707070" stroke-miterlimit="10" stroke-width="7"/><line x2="6.4" y2="17.5" transform="translate(141.2 26.3)" fill="none" stroke="#707070" stroke-miterlimit="10" stroke-width="7"/><line x2="12" y2="14.3" transform="translate(83.4 59.7)" fill="none" stroke="#707070" stroke-miterlimit="10" stroke-width="7"/><g transform="translate(-196.5 -293)"><line x2="16.1" y2="9.4" transform="translate(237 403.8)" fill="none" stroke="#707070" stroke-miterlimit="10" stroke-width="7"/><line x2="16.2" y2="9.4" transform="translate(553.9 586.8)" fill="none" stroke="#707070" stroke-miterlimit="10" stroke-width="7"/></g><g transform="translate(-196.5 -293)"><line x2="18.4" y2="3.2" transform="translate(214.1 466.6)" fill="none" stroke="#707070" stroke-miterlimit="10" stroke-width="7"/><line x2="18.3" y2="3.2" transform="translate(574.6 530.2)" fill="none" stroke="#707070" stroke-miterlimit="10" stroke-width="7"/></g><line y1="3.2" x2="18.4" transform="translate(17.6 237.2)" fill="none" stroke="#707070" stroke-miterlimit="10" stroke-width="7"/><line y1="3.2" x2="18.3" transform="translate(378.1 173.6)" fill="none" stroke="#707070" stroke-miterlimit="10" stroke-width="7"/><g transform="translate(-196.5 -293)"><line y1="9.4" x2="16.1" transform="translate(237 586.8)" fill="none" stroke="#707070" stroke-miterlimit="10" stroke-width="7"/><line y1="9.4" x2="16.2" transform="translate(553.9 403.8)" fill="none" stroke="#707070" stroke-miterlimit="10" stroke-width="7"/></g><line y1="14.3" x2="12" transform="translate(318.7 59.7)" fill="none" stroke="#707070" stroke-miterlimit="10" stroke-width="7"/><line y1="17.5" x2="6.4" transform="translate(266.4 26.3)" fill="none" stroke="#707070" stroke-miterlimit="10" stroke-width="7"/><line x2="1.6" y2="9.2" transform="translate(173.6 17.6)" fill="none" stroke="#707070" stroke-miterlimit="10" stroke-width="4"/><line x2="4.6" y2="8.1" transform="translate(110.9 40.4)" fill="none" stroke="#707070" stroke-miterlimit="10" stroke-width="4"/><line x2="7.1" y2="6" transform="translate(59.7 83.4)" fill="none" stroke="#707070" stroke-miterlimit="10" stroke-width="4"/><line x2="8.8" y2="3.2" transform="translate(26.3 141.2)" fill="none" stroke="#707070" stroke-miterlimit="10" stroke-width="4"/><line x2="8.8" y2="3.2" transform="translate(379 269.6)" fill="none" stroke="#ec008c" stroke-miterlimit="10" stroke-width="4"/><line x2="9.3" transform="translate(14.7 207)" fill="none" stroke="#707070" stroke-miterlimit="10" stroke-width="4"/><line x2="9.4" transform="translate(390 207)" fill="none" stroke="#ec008c" stroke-miterlimit="10" stroke-width="4"/><line y1="3.2" x2="8.8" transform="translate(26.3 269.6)" fill="none" stroke="#707070" stroke-miterlimit="10" stroke-width="4"/><line y1="3.2" x2="8.8" transform="translate(379 141.2)" fill="none" stroke="#707070" stroke-miterlimit="10" stroke-width="4"/><line y1="6" x2="7.2" transform="translate(347.2 83.4)" fill="none" stroke="#707070" stroke-miterlimit="10" stroke-width="4"/><line y1="8.1" x2="4.7" transform="translate(298.5 40.4)" fill="none" stroke="#707070" stroke-miterlimit="10" stroke-width="4"/><line y1="9.2" x2="1.6" transform="translate(238.8 17.6)" fill="none" stroke="#707070" stroke-miterlimit="10" stroke-width="4"/><text transform="translate(63.261 298.5)" fill="#fff" font-size="22" font-family="SegoeUI, Segoe UI"><tspan x="0" y="0">0</tspan></text><text transform="translate(42.761 240.398)" fill="#fff" font-size="22" font-family="SegoeUI, Segoe UI"><tspan x="0" y="0">20</tspan></text><text transform="translate(48.54 185.398)" fill="#fff" font-size="22" font-family="SegoeUI, Segoe UI"><tspan x="0" y="0">30</tspan></text><text transform="translate(63.261 133.898)" fill="#fff" font-size="22" font-family="SegoeUI, Segoe UI"><tspan x="0" y="0">40</tspan></text><text transform="translate(96.486 93.076)" fill="#fff" font-size="22" font-family="SegoeUI, Segoe UI"><tspan x="0" y="0">60</tspan></text><text transform="translate(135.761 63.87)" fill="#fff" font-size="22" font-family="SegoeUI, Segoe UI"><tspan x="0" y="0">80</tspan></text><text transform="translate(244.761 63.87)" fill="#fff" font-size="22" font-family="SegoeUI, Segoe UI"><tspan x="0" y="0">120</tspan></text><text transform="translate(287.261 93.076)" fill="#fff" font-size="22" font-family="SegoeUI, Segoe UI"><tspan x="0" y="0">140</tspan></text><text transform="translate(315.261 133.898)" fill="#fff" font-size="22" font-family="SegoeUI, Segoe UI"><tspan x="0" y="0">160</tspan></text><text transform="translate(332.761 185.398)" fill="#ec008c" font-size="22" font-family="SegoeUI, Segoe UI"><tspan x="0" y="0">180</tspan></text><text transform="translate(335.261 244.398)" fill="#ec008c" font-size="22" font-family="SegoeUI, Segoe UI"><tspan x="0" y="0">200</tspan></text><text transform="translate(309.261 298.5)" fill="#ec008c" font-size="22" font-family="SegoeUI, Segoe UI"><tspan x="0" y="0">210</tspan></text><text transform="translate(188.761 53.37)" fill="#fff" font-size="22" font-family="SegoeUI, Segoe UI"><tspan x="0" y="0">100</tspan></text><path d="M207,0C321.323,0,414,92.677,414,207S321.323,414,207,414,0,321.323,0,207,92.677,0,207,0Z" fill="none" stroke="#707070" stroke-width="9"/><circle cx="201.3" cy="201.3" r="201.3" transform="translate(5.7 5.7)" fill="none" stroke="#707070" stroke-miterlimit="10" stroke-width="3"/><line x1="17" y1="168.2" transform="translate(190 38.8)" fill="none" stroke="#707070" stroke-linecap="round" stroke-linejoin="round" stroke-miterlimit="10" stroke-width="6"/><circle cx="113.9" cy="113.9" r="113.9" transform="translate(93.1 93.1)" fill="#000230" stroke="#707070" stroke-miterlimit="10" stroke-width="4"/><circle cx="111" cy="111" r="111" transform="translate(96 96)" fill="#000230" stroke="#707070" stroke-miterlimit="10" stroke-width="2"/><g transform="translate(-196.5 -293)"><text transform="translate(326.914 516.083)" fill="#153b63" font-size="55.83" font-family="SegoeUI, Segoe UI"><tspan x="0" y="0">0</tspan><tspan y="0" fill="#fff">97</tspan></text></g><text transform="translate(226.846 222.948)" fill="#fff" font-size="18.55" font-family="SegoeUI, Segoe UI"><tspan x="0" y="0">KM/H</tspan></text><path d="M592.3,462.9a196.926,196.926,0,0,1,3.6,37.1,191.374,191.374,0,0,1-27.4,99" transform="translate(-196.5 -293)" fill="none" stroke="#ec008c" stroke-miterlimit="10" stroke-width="4"/><line x1="22" y1="166.6" transform="translate(778 40.4)" fill="none" stroke="#707070" stroke-linecap="round" stroke-linejoin="round" stroke-miterlimit="10" stroke-width="6"/><g transform="translate(-196.5 -293)"><circle cx="207" cy="207" r="207" transform="translate(789.5 293)" fill="none" stroke="#707070" stroke-miterlimit="10" stroke-width="9"/><line y1="20.9" transform="translate(996.5 307.7)" fill="none" stroke="#707070" stroke-miterlimit="10" stroke-width="7"/><circle cx="113.9" cy="113.9" r="113.9" transform="translate(882.6 386.1)" fill="none" stroke="#707070" stroke-miterlimit="10" stroke-width="4"/><circle cx="111" cy="111" r="111" transform="translate(885.5 389)" fill="#000230" stroke="#707070" stroke-miterlimit="10" stroke-width="2"/><circle cx="201.3" cy="201.3" r="201.3" transform="translate(795.2 298.7)" fill="none" stroke="#707070" stroke-miterlimit="10" stroke-width="3"/><line y1="20.9" transform="translate(996.5 307.7)" fill="none" stroke="#707070" stroke-miterlimit="10" stroke-width="7"/><line y1="20.9" transform="translate(996.5 671.4)" fill="none" stroke="#707070" stroke-miterlimit="10" stroke-width="7"/><line x1="10.5" y1="18.1" transform="translate(900.3 333.4)" fill="none" stroke="#707070" stroke-miterlimit="10" stroke-width="7"/><line x1="10.4" y1="18.1" transform="translate(1082.2 648.5)" fill="none" stroke="#707070" stroke-miterlimit="10" stroke-width="7"/><line x1="18.1" y1="10.5" transform="translate(829.9 403.8)" fill="none" stroke="#707070" stroke-miterlimit="10" stroke-width="7"/><line x1="18" y1="10.5" transform="translate(1145 585.7)" fill="none" stroke="#707070" stroke-miterlimit="10" stroke-width="7"/><line x1="20.9" transform="translate(804.1 500)" fill="none" stroke="#707070" stroke-miterlimit="10" stroke-width="7"/><line x1="20.9" transform="translate(1167.9 500)" fill="none" stroke="#707070" stroke-miterlimit="10" stroke-width="7"/><line x1="18.1" y2="10.5" transform="translate(829.9 585.7)" fill="none" stroke="#707070" stroke-miterlimit="10" stroke-width="7"/><line x1="18" y2="10.5" transform="translate(1145 403.8)" fill="none" stroke="#707070" stroke-miterlimit="10" stroke-width="7"/><line x1="10.5" y2="18.1" transform="translate(900.3 648.5)" fill="none" stroke="#707070" stroke-miterlimit="10" stroke-width="7"/><line x1="10.4" y2="18.1" transform="translate(1082.2 333.4)" fill="none" stroke="#707070" stroke-miterlimit="10" stroke-width="7"/><line x2="1.2" y2="9.3" transform="translate(971.4 309.3)" fill="none" stroke="#707070" stroke-miterlimit="10" stroke-width="4"/><line x2="1.2" y2="9.3" transform="translate(1020.4 681.4)" fill="none" stroke="#707070" stroke-miterlimit="10" stroke-width="4"/><line x2="2.4" y2="9" transform="translate(946.7 314.2)" fill="none" stroke="#707070" stroke-miterlimit="10" stroke-width="4"/><line x2="2.5" y2="9" transform="translate(1043.8 676.8)" fill="none" stroke="#707070" stroke-miterlimit="10" stroke-width="4"/><line x2="3.5" y2="8.6" transform="translate(922.9 322.3)" fill="none" stroke="#707070" stroke-miterlimit="10" stroke-width="4"/><line x2="3.6" y2="8.6" transform="translate(1066.5 669.1)" fill="none" stroke="#707070" stroke-miterlimit="10" stroke-width="4"/><line x2="5.7" y2="7.4" transform="translate(879.4 347.4)" fill="none" stroke="#707070" stroke-miterlimit="10" stroke-width="4"/><line x2="5.7" y2="7.4" transform="translate(1107.9 645.2)" fill="none" stroke="#707070" stroke-miterlimit="10" stroke-width="4"/><line x2="6.6" y2="6.6" transform="translate(860.5 364)" fill="none" stroke="#707070" stroke-miterlimit="10" stroke-width="4"/><line x2="6.6" y2="6.6" transform="translate(1125.9 629.4)" fill="none" stroke="#707070" stroke-miterlimit="10" stroke-width="4"/><line x2="7.4" y2="5.7" transform="translate(843.9 382.9)" fill="none" stroke="#707070" stroke-miterlimit="10" stroke-width="4"/><line x2="7.4" y2="5.7" transform="translate(1141.7 611.4)" fill="none" stroke="#707070" stroke-miterlimit="10" stroke-width="4"/><line x2="8.6" y2="3.6" transform="translate(818.8 426.4)" fill="none" stroke="#707070" stroke-miterlimit="10" stroke-width="4"/><line x2="8.7" y2="3.6" transform="translate(1165.5 570)" fill="none" stroke="#707070" stroke-miterlimit="10" stroke-width="4"/><line x2="9" y2="2.4" transform="translate(810.7 450.2)" fill="none" stroke="#707070" stroke-miterlimit="10" stroke-width="4"/><line x2="9.1" y2="2.4" transform="translate(1173.2 547.4)" fill="none" stroke="#707070" stroke-miterlimit="10" stroke-width="4"/><line x2="9.2" y2="1.2" transform="translate(805.8 474.9)" fill="none" stroke="#707070" stroke-miterlimit="10" stroke-width="4"/><line x2="9.3" y2="1.2" transform="translate(1177.9 523.9)" fill="none" stroke="#707070" stroke-miterlimit="10" stroke-width="4"/><line y1="1.2" x2="9.2" transform="translate(805.8 523.9)" fill="none" stroke="#707070" stroke-miterlimit="10" stroke-width="4"/><line y1="1.2" x2="9.3" transform="translate(1177.9 474.9)" fill="none" stroke="#707070" stroke-miterlimit="10" stroke-width="4"/><line y1="2.4" x2="9" transform="translate(810.7 547.4)" fill="none" stroke="#707070" stroke-miterlimit="10" stroke-width="4"/><line y1="2.4" x2="9.1" transform="translate(1173.2 450.2)" fill="none" stroke="#707070" stroke-miterlimit="10" stroke-width="4"/><line y1="3.6" x2="8.6" transform="translate(818.8 570)" fill="none" stroke="#707070" stroke-miterlimit="10" stroke-width="4"/><line y1="3.6" x2="8.7" transform="translate(1165.5 426.4)" fill="none" stroke="#707070" stroke-miterlimit="10" stroke-width="4"/><line y1="5.7" x2="7.4" transform="translate(843.9 611.4)" fill="none" stroke="#707070" stroke-miterlimit="10" stroke-width="4"/><line y1="5.7" x2="7.4" transform="translate(1141.7 382.9)" fill="none" stroke="#707070" stroke-miterlimit="10" stroke-width="4"/><line y1="6.6" x2="6.6" transform="translate(860.5 629.4)" fill="none" stroke="#707070" stroke-miterlimit="10" stroke-width="4"/><line y1="6.6" x2="6.6" transform="translate(1125.9 364)" fill="none" stroke="#707070" stroke-miterlimit="10" stroke-width="4"/><line y1="7.4" x2="5.7" transform="translate(879.4 645.2)" fill="none" stroke="#707070" stroke-miterlimit="10" stroke-width="4"/><line y1="7.4" x2="5.7" transform="translate(1107.9 347.4)" fill="none" stroke="#707070" stroke-miterlimit="10" stroke-width="4"/><line y1="8.6" x2="3.5" transform="translate(922.9 669.1)" fill="none" stroke="#707070" stroke-miterlimit="10" stroke-width="4"/><line y1="8.6" x2="3.6" transform="translate(1066.5 322.3)" fill="none" stroke="#707070" stroke-miterlimit="10" stroke-width="4"/><line y1="9" x2="2.4" transform="translate(946.7 676.8)" fill="none" stroke="#707070" stroke-miterlimit="10" stroke-width="4"/><line y1="9" x2="2.5" transform="translate(1043.8 314.2)" fill="none" stroke="#707070" stroke-miterlimit="10" stroke-width="4"/><line y1="9.3" x2="1.2" transform="translate(971.4 681.4)" fill="none" stroke="#707070" stroke-miterlimit="10" stroke-width="4"/><line y1="9.3" x2="1.2" transform="translate(1020.4 309.3)" fill="none" stroke="#707070" stroke-miterlimit="10" stroke-width="4"/></g><text transform="translate(654.794 294.909)" fill="#fff" font-size="32.34" font-family="SegoeUI, Segoe UI"><tspan x="0" y="0">0</tspan></text><text transform="translate(682.892 336.492)" fill="#fff" font-size="16.37" font-family="SegoeUI, Segoe UI"><tspan x="0" y="0">OFF</tspan></text><g transform="translate(-195.5 -293)"><text transform="translate(1119.042 587.909)" fill="#fff" font-size="32.34" font-family="SegoeUI, Segoe UI"><tspan x="0" y="0">8</tspan></text></g><g transform="translate(-195.5 -293)"><text transform="translate(829.913 509.909)" fill="#fff" font-size="32.34" font-family="SegoeUI, Segoe UI"><tspan x="0" y="0">1</tspan></text></g><g transform="translate(-195.5 -293)"><text transform="translate(851.295 428.183)" fill="#fff" font-size="32.34" font-family="SegoeUI, Segoe UI"><tspan x="0" y="0">2</tspan></text></g><g transform="translate(-195.5 -293)"><text transform="translate(909.295 370.373)" fill="#fff" font-size="32.34" font-family="SegoeUI, Segoe UI"><tspan x="0" y="0">3</tspan></text></g><g transform="translate(-195.5 -293)"><text transform="translate(985.514 354.816)" fill="#fff" font-size="32.34" font-family="SegoeUI, Segoe UI"><tspan x="0" y="0">4</tspan></text></g><g transform="translate(-195.5 -293)"><text transform="translate(1062.295 370.373)" fill="#fff" font-size="32.34" font-family="SegoeUI, Segoe UI"><tspan x="0" y="0">5</tspan></text></g><g transform="translate(-195.5 -293)"><text transform="translate(1121.879 428.183)" fill="#fff" font-size="32.34" font-family="SegoeUI, Segoe UI"><tspan x="0" y="0">6</tspan></text></g><g transform="translate(-195.5 -293)"><text transform="translate(1146.568 509.909)" fill="#fff" font-size="32.34" font-family="SegoeUI, Segoe UI"><tspan x="0" y="0">7</tspan></text></g><g transform="translate(-195.5 -293)"><text transform="translate(974.54 524.431)" fill="#fff" font-size="86.23" font-family="SegoeUI, Segoe UI"><tspan x="0" y="0">3</tspan></text></g><text transform="translate(781.16 269.59)" fill="#fff" font-size="14.26" font-family="SegoeUI, Segoe UI" letter-spacing="0.14em"><tspan x="0" y="0">GEAR</tspan></text><path d="M825.6,352.7a229.1,229.1,0,0,0-34.6,54H609a225.971,225.971,0,0,0-34.6-54Z" transform="translate(-195.5 -293)" fill="url(#a)"/><path d="M788.3,412.8a221.389,221.389,0,0,0-15,54H626.7a225.936,225.936,0,0,0-15-54Z" transform="translate(-195.5 -293)" fill="url(#b)"/><path d="M770.9,500a219.917,219.917,0,0,0,1.6,27h-145a228.616,228.616,0,0,0,0-54h145A218.746,218.746,0,0,0,770.9,500Z" transform="translate(-195.5 -293)" fill="url(#c)"/><path d="M788.3,587.2H611.7a221.389,221.389,0,0,0,15-54H773.3A228.552,228.552,0,0,0,788.3,587.2Z" transform="translate(-195.5 -293)" fill="url(#d)"/><path d="M825.6,647.3H574.4a225.971,225.971,0,0,0,34.6-54H791A227.084,227.084,0,0,0,825.6,647.3Z" transform="translate(-195.5 -293)" fill="url(#e)"/><rect width="15.3" height="8.4" transform="translate(429.4 96)" fill="#fff" stroke="#fff" stroke-miterlimit="10" stroke-width="2"/><rect width="15.3" height="8.4" transform="translate(451.7 96)" fill="#fff" stroke="#fff" stroke-miterlimit="10" stroke-width="2"/><rect width="15.3" height="8.4" transform="translate(474.1 96)" fill="#fff" stroke="#fff" stroke-miterlimit="10" stroke-width="2"/><rect width="15.3" height="8.4" transform="translate(496.4 96)" fill="#fff" stroke="#fff" stroke-miterlimit="10" stroke-width="2"/><rect width="15.3" height="8.4" transform="translate(518.7 96)" fill="#fff" stroke="#fff" stroke-miterlimit="10" stroke-width="2"/><rect width="15.3" height="8.4" transform="translate(541.1 96)" fill="none" stroke="#fff" stroke-miterlimit="10" stroke-width="2"/><rect width="15.3" height="8.4" transform="translate(563.4 96)" fill="none" stroke="#fff" stroke-miterlimit="10" stroke-width="2"/><g transform="translate(-195.5 -293)"><path d="M698.4,431a2.087,2.087,0,0,1,1.3,2,2.2,2.2,0,0,1-4.4,0,2.244,2.244,0,0,1,1.3-2V420a.789.789,0,0,1,.8-.8h0a.789.789,0,0,1,.8.8v1h3a.8.8,0,0,1,0,1.6h-3v1.6h3a.789.789,0,0,1,.8.8h0a.789.789,0,0,1-.8.8h-3v1.6h3a.789.789,0,0,1,.8.8h0a.789.789,0,0,1-.8.8h-3v2Z" fill="#fff" fill-rule="evenodd"/><path d="M694,436.3a4.272,4.272,0,0,1-3.4,1.6,4.209,4.209,0,0,1-4.2-3.5h1.7a2.595,2.595,0,0,0,5,0h1.7a2.595,2.595,0,0,0,5,0h1.7a2.595,2.595,0,0,0,5,0h1.7a29.807,29.807,0,0,0-11,3.5,4.175,4.175,0,0,1-3.2-1.6" fill="#fff" fill-rule="evenodd"/><path d="M694.7,430.4a4.288,4.288,0,0,1-4.2,3.5,4.209,4.209,0,0,1-4.2-3.5H688a2.595,2.595,0,0,0,5,0Z" fill="#fff" fill-rule="evenodd"/><path d="M708.5,430.4a4.288,4.288,0,0,1-4.2,3.5,4.209,4.209,0,0,1-4.2-3.5h1.7a2.595,2.595,0,0,0,5,0Z" fill="#fff" fill-rule="evenodd"/></g><rect width="15.3" height="8.4" transform="translate(451.7 154.3)" fill="#fff" stroke="#fff" stroke-miterlimit="10" stroke-width="2"/><rect width="15.3" height="8.4" transform="translate(474.1 154.3)" fill="#fff" stroke="#fff" stroke-miterlimit="10" stroke-width="2"/><rect width="15.3" height="8.4" transform="translate(496.4 154.3)" fill="none" stroke="#fff" stroke-miterlimit="10" stroke-width="2"/><rect width="15.3" height="8.4" transform="translate(518.7 154.3)" fill="none" stroke="#fff" stroke-miterlimit="10" stroke-width="2"/><rect width="15.3" height="8.4" transform="translate(541.1 154.3)" fill="none" stroke="#fff" stroke-miterlimit="10" stroke-width="2"/><path d="M697,359.9h5.8a.789.789,0,0,1,.8.8v2.7a.789.789,0,0,1-.8.8H697a.789.789,0,0,1-.8-.8v-2.7c.1-.4.4-.8.8-.8m-3.5,15.7h12.7c0-1.2,0-1.4-1.3-1.4v-6a2.769,2.769,0,0,1,.9.1c.3.1.3.2.4.5.1.5,0,1.2.1,1.8a1.95,1.95,0,0,0,.1.8,3.771,3.771,0,0,0,.7,2.1,1.743,1.743,0,0,0,1.2.6,1.832,1.832,0,0,0,1.7-.6c.1-.1.2-.2.2-.3a4.282,4.282,0,0,0,.6-2.2c0-.2.1-.5.1-.8V365a1.9,1.9,0,0,0-.3-.9,6.1,6.1,0,0,0-1.3-1.5l-.5-.5-.5-.5-.5-.5-.9-.9c-.2-.2-.7-.8-1.2-.4-.1.1-.2.1-.2.2-.2.4,0,.7.3,1l1.4,1.4c.3.3.3.1.3.7,0,1-.2,1.8.3,2.5a2.18,2.18,0,0,0,.4.5l.9.9c.3.3.3.2.3.7a21.617,21.617,0,0,1-.2,4.5c-.1.5-.4,1-1,.8-.4-.1-.6-.8-.6-1.2a33.107,33.107,0,0,0-.3-3.4c-.4-1.1-1.3-1.3-2.5-1.3v-6.5a2.008,2.008,0,0,0-1.2-2,2.483,2.483,0,0,0-.9-.1h-5.9a2.208,2.208,0,0,0-1.7,1,3.712,3.712,0,0,0-.2,1.9v13c-1.3,0-1.3.1-1.3,1.2h-.1Z" transform="translate(-195.5 -293)" fill="#fff" fill-rule="evenodd"/><path d="M651.7,492.1h7.5a1,1,0,0,1,1,1v3.5a1,1,0,0,1-1,1h-7.5a1,1,0,0,1-1-1v-3.5a1,1,0,0,1,1-1m-4.5,20.2h16.3c0-1.5.1-1.7-1.7-1.7v-7.7a3.749,3.749,0,0,1,1.1.1c.4.1.4.3.5.7.1.7,0,1.6.1,2.3a3.751,3.751,0,0,0,.1,1.1,5.234,5.234,0,0,0,1,2.7,2.718,2.718,0,0,0,1.6.8,2.8,2.8,0,0,0,2.2-.7l.3-.3a6.954,6.954,0,0,0,.8-2.9c0-.3.1-.7.1-1v-7a3.013,3.013,0,0,0-.3-1.2,15.585,15.585,0,0,0-1.6-2l-.6-.6-.6-.6-.6-.6-1.2-1.2c-.3-.3-.9-1-1.5-.5l-.3.3a.962.962,0,0,0,.4,1.2l1.8,1.8c.4.4.3.2.3.9,0,1.3-.2,2.3.4,3.2.2.2.4.5.6.7l1.2,1.2c.4.4.4.3.4.8a25.846,25.846,0,0,1-.3,5.7c-.2.6-.5,1.3-1.3,1.1-.5-.2-.7-1-.8-1.6-.3-1.5,0-3.3-.4-4.4-.5-1.5-1.7-1.6-3.2-1.6v-8.4a2.627,2.627,0,0,0-1.6-2.6,2.165,2.165,0,0,0-1.2-.2h-7.7a2.626,2.626,0,0,0-2.2,1.4,4.785,4.785,0,0,0-.3,2.5v16.8c-1.6,0-1.7.2-1.7,1.5h-.1Z" transform="translate(-195.5 -293)" fill="#fff" fill-rule="evenodd"/><g transform="translate(-195.5 -293)"><text transform="translate(616.914 379.37)" fill="#fff" font-size="22" font-family="SegoeUI, Segoe UI"><tspan x="0" y="0">E</tspan></text></g><g transform="translate(-195.5 -293)"><text transform="translate(772.484 379.37)" fill="#fff" font-size="22" font-family="SegoeUI, Segoe UI"><tspan x="0" y="0">F</tspan></text></g><g transform="translate(-195.5 -293)"><text transform="translate(684.913 509.909)" fill="#fff" font-size="22" font-family="SegoeUI, Segoe UI"><tspan x="0" y="0">23</tspan><tspan y="0" letter-spacing="0.045em">5</tspan><tspan y="0">km</tspan></text></g><g transform="translate(-195.5 -293)"><text transform="translate(647.247 625.186)" fill="#fff" font-size="22" font-family="SegoeUI, Segoe UI"><tspan x="0" y="0">12.05.2018</tspan></text></g><path d="M618.4,307.2H594.6v-8l-23.9,16.3,23.9,16.3v-8.1h23.8Z" transform="translate(-195.5 -293)" fill="#153b63" fill-rule="evenodd"/><path d="M780.3,307.2h23.8v-8L828,315.5l-23.9,16.3v-8.1H780.3Z" transform="translate(-195.5 -293)" fill="#153b63" fill-rule="evenodd"/><path d="M145.206,0,0,86.637" transform="translate(655.794 203.5)" fill="red" stroke="red" stroke-width="1"/></g></svg>